<mxfile host="app.diagrams.net" modified="2022-11-08T22:01:55.174Z" agent="5.0 (Macintosh; Intel Mac OS X 10_15_7) AppleWebKit/537.36 (KHTML, like Gecko) Chrome/107.0.0.0 Safari/537.36" etag="_9qB9ZQNhxrQHT_nq9PO" version="20.4.1" type="github">
  <diagram id="kK1oMe2VlQHmSl8PGtNt" name="Page-1">
    <mxGraphModel dx="946" dy="621" grid="1" gridSize="10" guides="1" tooltips="1" connect="1" arrows="1" fold="1" page="1" pageScale="1" pageWidth="850" pageHeight="1100" math="0" shadow="0">
      <root>
        <mxCell id="0" />
        <mxCell id="1" parent="0" />
        <mxCell id="s75YucnyRazSuOkLJm7u-1" value="data" style="shape=cylinder3;whiteSpace=wrap;html=1;boundedLbl=1;backgroundOutline=1;size=15;" parent="1" vertex="1">
          <mxGeometry x="120" y="40" width="60" height="80" as="geometry" />
        </mxCell>
        <mxCell id="s75YucnyRazSuOkLJm7u-8" style="rounded=0;orthogonalLoop=1;jettySize=auto;html=1;exitX=0.25;exitY=1;exitDx=0;exitDy=0;entryX=0.75;entryY=0;entryDx=0;entryDy=0;" parent="1" source="s75YucnyRazSuOkLJm7u-2" target="s75YucnyRazSuOkLJm7u-3" edge="1">
          <mxGeometry relative="1" as="geometry">
            <mxPoint x="240" y="180" as="targetPoint" />
          </mxGeometry>
        </mxCell>
        <mxCell id="s75YucnyRazSuOkLJm7u-9" style="edgeStyle=none;rounded=0;orthogonalLoop=1;jettySize=auto;html=1;exitX=0.75;exitY=1;exitDx=0;exitDy=0;entryX=0.5;entryY=0;entryDx=0;entryDy=0;" parent="1" source="s75YucnyRazSuOkLJm7u-2" target="s75YucnyRazSuOkLJm7u-4" edge="1">
          <mxGeometry relative="1" as="geometry" />
        </mxCell>
        <mxCell id="s75YucnyRazSuOkLJm7u-10" style="edgeStyle=none;rounded=0;orthogonalLoop=1;jettySize=auto;html=1;exitX=0.5;exitY=1;exitDx=0;exitDy=0;entryX=0.5;entryY=0;entryDx=0;entryDy=0;" parent="1" source="s75YucnyRazSuOkLJm7u-2" target="s75YucnyRazSuOkLJm7u-5" edge="1">
          <mxGeometry relative="1" as="geometry" />
        </mxCell>
        <mxCell id="s75YucnyRazSuOkLJm7u-11" style="edgeStyle=none;rounded=0;orthogonalLoop=1;jettySize=auto;html=1;exitX=1;exitY=0.5;exitDx=0;exitDy=0;entryX=0;entryY=0.5;entryDx=0;entryDy=0;" parent="1" source="s75YucnyRazSuOkLJm7u-2" target="s75YucnyRazSuOkLJm7u-6" edge="1">
          <mxGeometry relative="1" as="geometry" />
        </mxCell>
        <mxCell id="s75YucnyRazSuOkLJm7u-2" value="Viewer" style="rounded=1;whiteSpace=wrap;html=1;" parent="1" vertex="1">
          <mxGeometry x="310" y="70" width="120" height="60" as="geometry" />
        </mxCell>
        <mxCell id="s75YucnyRazSuOkLJm7u-7" style="edgeStyle=none;rounded=0;orthogonalLoop=1;jettySize=auto;html=1;exitX=0.5;exitY=0;exitDx=0;exitDy=0;entryX=0.5;entryY=1;entryDx=0;entryDy=0;entryPerimeter=0;" parent="1" source="s75YucnyRazSuOkLJm7u-3" target="s75YucnyRazSuOkLJm7u-1" edge="1">
          <mxGeometry relative="1" as="geometry" />
        </mxCell>
        <mxCell id="s75YucnyRazSuOkLJm7u-3" value="Layers" style="rounded=1;whiteSpace=wrap;html=1;" parent="1" vertex="1">
          <mxGeometry x="150" y="190" width="120" height="60" as="geometry" />
        </mxCell>
        <mxCell id="s75YucnyRazSuOkLJm7u-4" value="Dims" style="rounded=1;whiteSpace=wrap;html=1;" parent="1" vertex="1">
          <mxGeometry x="450" y="180" width="120" height="60" as="geometry" />
        </mxCell>
        <mxCell id="hcDduwp4VHnjIowvwHhj-1" style="edgeStyle=orthogonalEdgeStyle;curved=1;rounded=0;orthogonalLoop=1;jettySize=auto;html=1;exitX=1;exitY=0.5;exitDx=0;exitDy=0;entryX=0.5;entryY=1;entryDx=0;entryDy=0;dashed=1;" edge="1" parent="1" source="s75YucnyRazSuOkLJm7u-5" target="s75YucnyRazSuOkLJm7u-6">
          <mxGeometry relative="1" as="geometry" />
        </mxCell>
        <mxCell id="s75YucnyRazSuOkLJm7u-5" value="Slicer" style="rounded=1;whiteSpace=wrap;html=1;" parent="1" vertex="1">
          <mxGeometry x="310" y="320" width="120" height="60" as="geometry" />
        </mxCell>
        <mxCell id="s75YucnyRazSuOkLJm7u-6" value="VispyLayers" style="rounded=1;whiteSpace=wrap;html=1;" parent="1" vertex="1">
          <mxGeometry x="600" y="70" width="120" height="60" as="geometry" />
        </mxCell>
        <mxCell id="hcDduwp4VHnjIowvwHhj-2" value="slice ready" style="text;html=1;strokeColor=none;fillColor=none;align=center;verticalAlign=middle;whiteSpace=wrap;rounded=0;" vertex="1" parent="1">
          <mxGeometry x="600" y="300" width="60" height="30" as="geometry" />
        </mxCell>
        <mxCell id="hcDduwp4VHnjIowvwHhj-4" value="&lt;font style=&quot;font-size: 16px;&quot;&gt;Dims: defines field of view&lt;br&gt;&lt;br&gt;Layers: model of napari layers&lt;br&gt;&lt;br&gt;Data: layer data that may live in RAM, VRAM, on disk, remotely&lt;br&gt;&lt;br&gt;Slicing: compose layers and dims to generate data in field of view&lt;br&gt;&lt;br&gt;Current slicing: one layer + one FOV -&amp;gt; one view update&lt;br&gt;&lt;br&gt;Progressive slicing: one layer + one FOV -&amp;gt; multiple chunked view updates&lt;br&gt;&lt;/font&gt;" style="text;html=1;strokeColor=none;fillColor=none;align=left;verticalAlign=middle;whiteSpace=wrap;rounded=0;" vertex="1" parent="1">
          <mxGeometry x="80" y="400" width="690" height="290" as="geometry" />
        </mxCell>
      </root>
    </mxGraphModel>
  </diagram>
</mxfile>
